<svg width="4759" height="794" viewBox="0 0 4759 794" fill="none" xmlns="http://www.w3.org/2000/svg">
<path d="M617.791 235.375C612.291 229.992 547.291 173.717 415.791 195.249C371.791 202.453 362.791 211.397 334.291 230.481C334.291 104.271 256.545 11.7444 383.649 11.7444C510.753 11.7444 617.791 109.165 617.791 235.375Z" fill="#565B49"/>
<path d="M351.791 213.354C258.07 232.959 250.95 352.328 260.45 444.325C281.45 485.43 148.45 556.874 81.4502 511.365C-120.55 409.092 116.791 440.4 116.791 300.947C116.791 161.494 3.45753 0 130.759 0C258.061 0 351.791 73.9013 351.791 213.354Z" fill="#687152"/>
<path d="M561 717.5C561 737.658 562.644 742 540 742C524.5 705.5 493 728.658 493 708.5C493 688.342 511.356 672 534 672C556.644 672 526 704 561 717.5Z" fill="#687152"/>
<path d="M602 377.5C602 400.972 584.315 386 562.5 386C540.685 386 523 400.972 523 377.5C523 354.028 540.685 335 562.5 335C584.315 335 602 354.028 602 377.5Z" fill="#D9EEA5"/>
<path d="M486 376.5C486 399.972 476.815 383 455 383C433.185 383 407 399.972 407 376.5C407 353.028 424.685 334 446.5 334C468.315 334 486 353.028 486 376.5Z" fill="#D9EEA5"/>
<path fill-rule="evenodd" clip-rule="evenodd" d="M351.016 542.181C345.492 552.706 332.266 558.181 322.266 555.181C290.209 545.564 259.961 522.681 248.016 507.681C226.516 480.681 212.381 460.923 201.516 428.181C194.975 408.468 193.252 396.449 193.016 375.681C192.615 340.259 199.534 319.542 215.016 287.681C229.815 257.227 242.16 241.119 267.516 218.681C295.468 193.946 315.594 183.942 351.016 172.181C389.818 159.298 414.239 157.233 455.016 160.181C488.795 162.622 511.97 165.362 543.516 177.681C544.641 178.12 545.751 178.553 546.848 178.981C581.834 192.626 603.472 201.065 629.516 228.181C647.867 247.286 657.205 262.617 667.516 284.681C677.828 306.744 687.516 346.681 687.516 346.681C687.516 346.681 694.894 382.255 691.516 401.681C690.714 406.299 689.981 410.614 689.293 414.663C683.329 449.769 680.758 464.904 665.516 484.181C640.384 515.967 617.995 532.306 580.516 546.681C547.964 559.167 526.15 561.71 504.433 564.242C501.799 564.549 499.166 564.856 496.516 565.181C495.18 565.344 493.768 565.505 492.303 565.671C475.802 567.545 452.516 570.189 452.516 587.181C454.016 607.681 467.516 619.181 487.516 623.181C493.473 623.965 499.429 624.404 505.108 624.824C517.545 625.742 528.651 626.562 535.516 630.681C545.516 636.681 560.516 657.681 538.016 657.681C519.516 657.681 489.016 663.681 474.516 694.181C471.516 705.681 457.516 707.181 449.016 694.181C444.328 687.01 445.296 678.657 446.252 670.406C447.029 663.7 447.799 657.062 445.516 651.181C439.067 634.561 427.449 620.649 417.378 608.589C407.149 596.34 398.516 586.003 398.516 576.681C398.516 547.369 411.886 485.033 457.909 481.048C459.525 487.965 463.796 494.138 470.116 497.622C480.542 503.369 492.961 499.822 499.39 489.817C500.831 491.181 502.449 492.376 504.229 493.358C515.706 499.684 529.598 494.749 535.256 482.334C535.751 481.248 536.167 480.14 536.505 479.019C537.601 479.916 538.784 480.721 540.048 481.418C551.525 487.744 565.416 482.809 571.075 470.394C572.517 467.23 573.285 463.886 573.439 460.554C584.136 464.328 595.961 459.217 601.071 448.005C603.977 441.63 604.146 434.522 602.069 428.258C610.45 428.198 618.449 423.172 622.411 414.479C626.514 405.477 625.162 395.014 619.732 387.53C623.722 385.182 627.101 381.521 629.271 376.762C634.751 364.737 630.498 350.106 619.796 343.45C623.43 331.715 618.59 318.456 608.065 312.654C606.133 311.589 604.132 310.844 602.114 310.399C606.031 298.549 601.203 285.009 590.535 279.128C585.842 276.541 580.745 275.837 575.972 276.758C575.422 268.082 570.771 259.89 563.098 255.66C559.376 253.608 555.399 252.741 551.532 252.929C546.93 245.762 538.79 241 529.516 241C526.362 241 523.339 241.551 520.542 242.56C517.46 231.849 507.423 224 495.516 224C488.033 224 481.287 227.101 476.544 232.064C471.869 224.822 463.528 220 454.016 220C446.061 220 438.924 223.373 434.067 228.714C433.469 228.719 432.871 228.727 432.273 228.738C424.62 222.008 413.242 220.244 403.438 225.159C399.58 227.092 396.404 229.841 394.021 233.082C392.384 233.469 390.798 233.911 389.258 234.404C382.215 230.936 373.622 230.711 365.984 234.54C359.349 237.866 354.733 243.6 352.694 250.109C346.37 248.018 339.203 248.349 332.724 251.596C324.138 255.9 318.933 264.236 318.318 273.064C312.978 272.127 307.274 272.843 302.022 275.476C290.085 281.459 284.683 295.237 289.065 307.294C286.807 307.746 284.569 308.505 282.407 309.589C270.629 315.492 265.213 328.984 269.28 340.924C257.305 347.696 252.545 362.584 258.678 374.819C261.106 379.662 264.887 383.386 269.351 385.775C263.276 393.39 261.762 404.036 266.354 413.196C270.788 422.042 279.738 427.156 289.116 427.217C286.792 433.59 286.981 440.823 290.233 447.31C295.591 457.999 307.545 463.239 318.876 460.698C319.217 461.648 319.619 462.589 320.082 463.514C326.414 476.146 341.958 481.168 354.801 474.73C361.185 471.53 365.7 466.101 367.848 459.897C367.899 459.931 367.949 459.965 368 460C378.25 467 358.174 528.543 351.016 542.181Z" fill="#94B347"/>
<path d="M1258.14 349C1253.45 334.653 1247.27 321.798 1239.6 310.435C1232.07 298.929 1223.05 289.128 1212.54 281.031C1202.17 272.935 1190.38 266.756 1177.17 262.494C1163.96 258.233 1149.47 256.102 1133.7 256.102C1107.85 256.102 1084.34 262.778 1063.18 276.131C1042.01 289.483 1025.18 309.156 1012.68 335.151C1000.18 361.145 993.932 393.034 993.932 430.818C993.932 468.602 1000.25 500.491 1012.89 526.486C1025.54 552.48 1042.65 572.153 1064.24 585.506C1085.84 598.858 1110.13 605.534 1137.11 605.534C1162.11 605.534 1184.13 600.207 1203.16 589.554C1222.34 578.759 1237.26 563.56 1247.91 543.957C1258.7 524.213 1264.1 500.989 1264.1 474.284L1280.3 477.693H1149.05V430.818H1315.24V477.693C1315.24 513.631 1307.57 544.881 1292.23 571.443C1277.03 598.006 1256.01 618.602 1229.16 633.233C1202.45 647.722 1171.77 654.966 1137.11 654.966C1098.48 654.966 1064.53 645.875 1035.27 627.693C1006.15 609.511 983.42 583.659 967.085 550.136C950.892 516.614 942.795 476.841 942.795 430.818C942.795 396.301 947.412 365.264 956.645 337.707C966.02 310.009 979.23 286.429 996.276 266.969C1013.32 247.509 1033.49 232.594 1056.79 222.224C1080.08 211.855 1105.72 206.67 1133.7 206.67C1156.72 206.67 1178.16 210.151 1198.05 217.111C1218.08 223.929 1235.91 233.659 1251.53 246.301C1267.3 258.801 1280.44 273.787 1290.95 291.259C1301.46 308.588 1308.7 327.835 1312.68 349H1258.14ZM1495.23 656.67C1474.49 656.67 1455.67 652.764 1438.76 644.952C1421.86 636.997 1408.44 625.562 1398.5 610.648C1388.55 595.591 1383.58 577.409 1383.58 556.102C1383.58 537.352 1387.27 522.153 1394.66 510.506C1402.05 498.716 1411.92 489.483 1424.28 482.807C1436.63 476.131 1450.27 471.159 1465.19 467.892C1480.24 464.483 1495.37 461.784 1510.57 459.795C1530.46 457.239 1546.58 455.321 1558.94 454.043C1571.44 452.622 1580.53 450.278 1586.21 447.011C1592.03 443.744 1594.94 438.062 1594.94 429.966V428.261C1594.94 407.239 1589.19 390.903 1577.69 379.256C1566.32 367.608 1549.06 361.784 1525.91 361.784C1501.9 361.784 1483.08 367.04 1469.45 377.551C1455.81 388.062 1446.22 399.284 1440.68 411.216L1392.96 394.17C1401.48 374.284 1412.84 358.801 1427.05 347.722C1441.39 336.5 1457.02 328.687 1473.92 324.284C1490.97 319.739 1507.73 317.466 1524.21 317.466C1534.72 317.466 1546.79 318.744 1560.43 321.301C1574.21 323.716 1587.49 328.759 1600.27 336.429C1613.2 344.099 1623.92 355.676 1632.44 371.159C1640.97 386.642 1645.23 407.381 1645.23 433.375V649H1594.94V604.682H1592.39C1588.98 611.784 1583.3 619.384 1575.34 627.48C1567.39 635.577 1556.8 642.466 1543.59 648.148C1530.38 653.83 1514.26 656.67 1495.23 656.67ZM1502.9 611.5C1522.78 611.5 1539.55 607.594 1553.18 599.781C1566.96 591.969 1577.33 581.884 1584.29 569.526C1591.39 557.168 1594.94 544.17 1594.94 530.534V484.511C1592.81 487.068 1588.13 489.412 1580.88 491.543C1573.78 493.531 1565.54 495.307 1556.17 496.869C1546.93 498.29 1537.91 499.568 1529.11 500.705C1520.44 501.699 1513.41 502.551 1508.01 503.261C1494.94 504.966 1482.73 507.736 1471.36 511.571C1460.14 515.264 1451.05 520.875 1444.09 528.403C1437.27 535.79 1433.86 545.875 1433.86 558.659C1433.86 576.131 1440.33 589.341 1453.25 598.29C1466.32 607.097 1482.87 611.5 1502.9 611.5ZM1737.01 649V321.727H1785.59V372.864H1789.85C1796.67 355.392 1807.67 341.827 1822.87 332.168C1838.07 322.366 1856.33 317.466 1877.63 317.466C1899.22 317.466 1917.19 322.366 1931.54 332.168C1946.03 341.827 1957.32 355.392 1965.42 372.864H1968.83C1977.21 355.96 1989.78 342.537 2006.54 332.594C2023.3 322.509 2043.4 317.466 2066.84 317.466C2096.1 317.466 2120.03 326.628 2138.64 344.952C2157.25 363.134 2166.55 391.472 2166.55 429.966V649H2116.27V429.966C2116.27 405.818 2109.66 388.56 2096.45 378.19C2083.24 367.821 2067.69 362.636 2049.79 362.636C2026.78 362.636 2008.95 369.597 1996.31 383.517C1983.67 397.295 1977.35 414.767 1977.35 435.932V649H1926.21V424.852C1926.21 406.244 1920.17 391.259 1908.1 379.895C1896.03 368.389 1880.47 362.636 1861.44 362.636C1848.37 362.636 1836.15 366.116 1824.79 373.077C1813.57 380.037 1804.48 389.696 1797.52 402.054C1790.7 414.27 1787.29 428.403 1787.29 444.455V649H1737.01ZM2258.49 649V321.727H2307.07V372.864H2311.33C2318.15 355.392 2329.16 341.827 2344.36 332.168C2359.56 322.366 2377.81 317.466 2399.12 317.466C2420.71 317.466 2438.68 322.366 2453.02 332.168C2467.51 341.827 2478.8 355.392 2486.9 372.864H2490.31C2498.69 355.96 2511.26 342.537 2528.02 332.594C2544.78 322.509 2564.88 317.466 2588.32 317.466C2617.58 317.466 2641.52 326.628 2660.12 344.952C2678.73 363.134 2688.04 391.472 2688.04 429.966V649H2637.75V429.966C2637.75 405.818 2631.15 388.56 2617.94 378.19C2604.73 367.821 2589.17 362.636 2571.28 362.636C2548.26 362.636 2530.44 369.597 2517.8 383.517C2505.15 397.295 2498.83 414.767 2498.83 435.932V649H2447.7V424.852C2447.7 406.244 2441.66 391.259 2429.59 379.895C2417.51 368.389 2401.96 362.636 2382.92 362.636C2369.86 362.636 2357.64 366.116 2346.28 373.077C2335.05 380.037 2325.96 389.696 2319 402.054C2312.18 414.27 2308.78 428.403 2308.78 444.455V649H2258.49ZM2876.28 656.67C2855.54 656.67 2836.72 652.764 2819.82 644.952C2802.92 636.997 2789.49 625.562 2779.55 610.648C2769.61 595.591 2764.63 577.409 2764.63 556.102C2764.63 537.352 2768.33 522.153 2775.71 510.506C2783.1 498.716 2792.97 489.483 2805.33 482.807C2817.69 476.131 2831.33 471.159 2846.24 467.892C2861.3 464.483 2876.42 461.784 2891.62 459.795C2911.51 457.239 2927.63 455.321 2939.99 454.043C2952.49 452.622 2961.58 450.278 2967.26 447.011C2973.09 443.744 2976 438.062 2976 429.966V428.261C2976 407.239 2970.25 390.903 2958.74 379.256C2947.38 367.608 2930.12 361.784 2906.96 361.784C2882.96 361.784 2864.14 367.04 2850.5 377.551C2836.87 388.062 2827.28 399.284 2821.74 411.216L2774.01 394.17C2782.53 374.284 2793.9 358.801 2808.1 347.722C2822.45 336.5 2838.07 328.687 2854.98 324.284C2872.02 319.739 2888.78 317.466 2905.26 317.466C2915.77 317.466 2927.85 318.744 2941.48 321.301C2955.26 323.716 2968.54 328.759 2981.33 336.429C2994.25 344.099 3004.98 355.676 3013.5 371.159C3022.02 386.642 3026.28 407.381 3026.28 433.375V649H2976V604.682H2973.44C2970.03 611.784 2964.35 619.384 2956.4 627.48C2948.44 635.577 2937.86 642.466 2924.65 648.148C2911.44 653.83 2895.32 656.67 2876.28 656.67ZM2883.95 611.5C2903.84 611.5 2920.6 607.594 2934.24 599.781C2948.02 591.969 2958.38 581.884 2965.35 569.526C2972.45 557.168 2976 544.17 2976 530.534V484.511C2973.87 487.068 2969.18 489.412 2961.94 491.543C2954.83 493.531 2946.6 495.307 2937.22 496.869C2927.99 498.29 2918.97 499.568 2910.16 500.705C2901.5 501.699 2894.46 502.551 2889.07 503.261C2876 504.966 2863.78 507.736 2852.42 511.571C2841.2 515.264 2832.11 520.875 2825.15 528.403C2818.33 535.79 2814.92 545.875 2814.92 558.659C2814.92 576.131 2821.38 589.341 2834.31 598.29C2847.38 607.097 2863.92 611.5 2883.95 611.5ZM3470.9 212.636V649H3419.77L3181.98 306.386H3177.72V649H3124.88V212.636H3176.02L3414.65 556.102H3418.91V212.636H3470.9ZM3702.77 655.818C3673.23 655.818 3647.31 648.787 3625 634.724C3602.85 620.662 3585.52 600.989 3573.02 575.705C3560.66 550.42 3554.48 520.875 3554.48 487.068C3554.48 452.977 3560.66 423.219 3573.02 397.793C3585.52 372.366 3602.85 352.622 3625 338.56C3647.31 324.497 3673.23 317.466 3702.77 317.466C3732.32 317.466 3758.17 324.497 3780.33 338.56C3802.63 352.622 3819.96 372.366 3832.32 397.793C3844.82 423.219 3851.07 452.977 3851.07 487.068C3851.07 520.875 3844.82 550.42 3832.32 575.705C3819.96 600.989 3802.63 620.662 3780.33 634.724C3758.17 648.787 3732.32 655.818 3702.77 655.818ZM3702.77 610.648C3725.22 610.648 3743.68 604.895 3758.17 593.389C3772.66 581.884 3783.38 566.756 3790.35 548.006C3797.31 529.256 3800.79 508.943 3800.79 487.068C3800.79 465.193 3797.31 444.81 3790.35 425.918C3783.38 407.026 3772.66 391.756 3758.17 380.108C3743.68 368.46 3725.22 362.636 3702.77 362.636C3680.33 362.636 3661.87 368.46 3647.38 380.108C3632.89 391.756 3622.16 407.026 3615.2 425.918C3608.24 444.81 3604.76 465.193 3604.76 487.068C3604.76 508.943 3608.24 529.256 3615.2 548.006C3622.16 566.756 3632.89 581.884 3647.38 593.389C3661.87 604.895 3680.33 610.648 3702.77 610.648ZM4070.16 321.727V364.341H3900.55V321.727H4070.16ZM3949.99 243.318H4000.27V555.25C4000.27 569.455 4002.33 580.108 4006.45 587.21C4010.71 594.17 4016.11 598.858 4022.64 601.273C4029.32 603.545 4036.35 604.682 4043.74 604.682C4049.28 604.682 4053.82 604.398 4057.37 603.83C4060.92 603.119 4063.76 602.551 4065.9 602.125L4076.12 647.295C4072.71 648.574 4067.96 649.852 4061.85 651.131C4055.74 652.551 4048 653.261 4038.62 653.261C4024.42 653.261 4010.5 650.207 3996.86 644.099C3983.37 637.991 3972.15 628.688 3963.2 616.188C3954.39 603.688 3949.99 587.92 3949.99 568.886V243.318ZM4279.5 655.818C4247.96 655.818 4220.76 648.858 4197.89 634.938C4175.16 620.875 4157.62 601.273 4145.26 576.131C4133.05 550.847 4126.94 521.443 4126.94 487.92C4126.94 454.398 4133.05 424.852 4145.26 399.284C4157.62 373.574 4174.81 353.545 4196.83 339.199C4218.99 324.71 4244.84 317.466 4274.38 317.466C4291.43 317.466 4308.26 320.307 4324.88 325.989C4341.5 331.67 4356.63 340.903 4370.26 353.688C4383.9 366.33 4394.77 383.091 4402.86 403.972C4410.96 424.852 4415.01 450.562 4415.01 481.102V502.409H4162.74V458.943H4363.87C4363.87 440.477 4360.18 424 4352.79 409.511C4345.55 395.023 4335.18 383.588 4321.68 375.207C4308.33 366.827 4292.56 362.636 4274.38 362.636C4254.35 362.636 4237.02 367.608 4222.39 377.551C4207.91 387.352 4196.75 400.136 4188.94 415.903C4181.13 431.67 4177.22 448.574 4177.22 466.614V495.591C4177.22 520.307 4181.49 541.259 4190.01 558.446C4198.67 575.491 4210.68 588.489 4226.02 597.438C4241.36 606.244 4259.18 610.648 4279.5 610.648C4292.71 610.648 4304.64 608.801 4315.29 605.108C4326.09 601.273 4335.39 595.591 4343.2 588.062C4351.02 580.392 4357.05 570.875 4361.31 559.511L4409.89 573.148C4404.78 589.625 4396.19 604.114 4384.11 616.614C4372.04 628.972 4357.12 638.631 4339.37 645.591C4321.61 652.409 4301.66 655.818 4279.5 655.818ZM4723.32 395.023L4678.15 407.807C4675.31 400.278 4671.12 392.963 4665.58 385.861C4660.18 378.616 4652.79 372.651 4643.42 367.963C4634.04 363.276 4622.04 360.932 4607.41 360.932C4587.38 360.932 4570.69 365.548 4557.34 374.781C4544.13 383.872 4537.52 395.449 4537.52 409.511C4537.52 422.011 4542.07 431.884 4551.16 439.128C4560.25 446.372 4574.45 452.409 4593.77 457.239L4642.35 469.17C4671.61 476.273 4693.42 487.139 4707.76 501.77C4722.11 516.259 4729.28 534.937 4729.28 557.807C4729.28 576.557 4723.89 593.318 4713.09 608.091C4702.44 622.864 4687.52 634.511 4668.35 643.034C4649.17 651.557 4626.87 655.818 4601.44 655.818C4568.06 655.818 4540.43 648.574 4518.56 634.085C4496.68 619.597 4482.83 598.432 4477.01 570.591L4524.74 558.659C4529.28 576.273 4537.88 589.483 4550.52 598.29C4563.3 607.097 4579.99 611.5 4600.59 611.5C4624.03 611.5 4642.64 606.528 4656.41 596.585C4670.33 586.5 4677.29 574.426 4677.29 560.364C4677.29 549 4673.32 539.483 4665.36 531.812C4657.41 524 4645.19 518.176 4628.72 514.341L4574.17 501.557C4544.2 494.455 4522.18 483.446 4508.12 468.531C4494.2 453.474 4487.24 434.653 4487.24 412.068C4487.24 393.602 4492.42 377.267 4502.79 363.062C4513.3 348.858 4527.58 337.707 4545.62 329.611C4563.8 321.514 4584.4 317.466 4607.41 317.466C4639.79 317.466 4665.22 324.568 4683.69 338.773C4702.29 352.977 4715.5 371.727 4723.32 395.023Z" fill="#94B347"/>
</svg>
