<svg width="696" height="752" viewBox="0 0 696 752" fill="none" xmlns="http://www.w3.org/2000/svg">
<ellipse cx="408.5" cy="226" rx="230.5" ry="226" fill="#A5B77B"/>
<ellipse cx="230.5" cy="269" rx="230.5" ry="258" fill="#98A775"/>
<ellipse cx="435.5" cy="192.5" rx="120.5" ry="52.5" fill="#94B347"/>
<path d="M639 299.195C639 378.832 550.125 449 440.492 449C330.858 449 282 390.051 282 310.414C282 230.777 330.858 155 440.492 155C550.125 155 639 219.558 639 299.195Z" fill="#94B347"/>
<path d="M619 301.687C619 382.7 523.992 452 433.933 452C337.007 452 268 382.7 268 301.687C268 220.674 346.574 155 443.5 155C540.426 155 619 220.674 619 301.687Z" fill="#94B347"/>
<path d="M696 297.991C696 410.1 564.805 506 441.39 506C308.566 506 214 410.1 214 297.991C214 185.882 321.676 95 454.5 95C587.324 95 696 185.882 696 297.991Z" fill="#94B347"/>
<path d="M662 348.772C662 425.967 547.136 492 439.084 492C322.794 492 240 425.967 240 348.772C240 271.578 334.272 209 450.562 209C566.853 209 662 271.578 662 348.772Z" fill="#DAEAAF"/>
<path d="M385.374 298.598H475.396L583 282.249C583 282.249 583 354.43 550.297 362.216C498.191 374.62 619.096 349.797 523.843 408.287C481.062 430.526 448.309 444.365 459.672 451.614C463.922 457.965 458.148 464.43 463.683 467.759C468.606 470.721 380.656 445.354 383.47 445.683C386.283 446.012 401.183 431.844 344.934 408.287C288.685 384.731 299.914 275 299.914 275L385.374 298.598Z" fill="#DAEAAF"/>
<path d="M540 469H538" stroke="black"/>
<ellipse cx="522.5" cy="293" rx="33.5" ry="31" fill="white"/>
<ellipse cx="523" cy="327" rx="42" ry="17" fill="#D4EE8D"/>
<ellipse cx="406.5" cy="293" rx="33.5" ry="31" fill="white"/>
<ellipse cx="407" cy="327" rx="42" ry="17" fill="#D4EE8D"/>
<ellipse cx="447" cy="296.5" rx="202" ry="172.5" fill="#DAEAAF"/>
<path d="M394.891 319.845C395.652 356.211 379.053 327.755 357.372 328.209C335.691 328.662 317.138 357.853 316.378 321.488C315.617 285.123 332.576 255.275 354.257 254.821C375.937 254.368 394.13 283.48 394.891 319.845Z" fill="#94B347"/>
<path d="M564.891 316.845C565.652 353.211 549.053 324.755 527.372 325.209C505.691 325.662 487.138 354.853 486.378 318.488C485.617 282.123 502.576 252.275 524.257 251.821C545.937 251.368 564.13 280.48 564.891 316.845Z" fill="#94B347"/>
<path d="M456.841 381.972C451.996 388.568 442.115 388.486 437.381 381.809L422.049 360.186C416.387 352.202 422.151 341.164 431.938 341.246L462.961 341.505C472.748 341.586 478.326 352.72 472.533 360.608L456.841 381.972Z" fill="#94B347"/>
<path d="M361.5 453C388.5 467 374 484.5 365 482C356 479.5 386.5 488 386.5 488L410.5 491.5L431 493.5H452.5L473 492C473 492 485 603 488 545.5C491 488 545.5 447 545.5 447L463.5 468.5L427.5 468L394 462.5C394 462.5 334.5 439 361.5 453Z" fill="#DAEAAF"/>
<path fill-rule="evenodd" clip-rule="evenodd" d="M547.829 646.846C581.939 606.446 652.757 512.783 692 336C651.943 150.953 511.007 165.341 444.339 172.147C434.448 173.157 426.192 174 420.143 174C388.454 174 356.542 230.194 339.22 280.1C333.259 293.163 328.874 309.11 326.891 328.533C326.305 332.964 326 336.99 326 340.507C326.198 336.376 326.497 332.386 326.891 328.533C328.662 315.127 333.001 298.019 339.22 280.1C365.232 223.1 421.267 221.017 438.854 224.676C517.303 218.985 667.2 221.018 499.5 361C504.132 367.319 502.519 380.045 499.329 405.217C496.556 427.092 492.592 458.365 490.5 503C488.174 552.628 483.797 592.062 480.112 620.034C481.07 620.011 482.033 620 483 620C513.38 620 539.108 631.28 547.829 646.846Z" fill="#94B347"/>
<path fill-rule="evenodd" clip-rule="evenodd" d="M539.809 375.986C737.819 375.986 682.792 272.1 657.85 255.949C657.344 255.431 656.863 254.936 656.403 254.463C646.699 244.488 646.06 243.832 621.253 230.915C547.537 192.532 373.572 168 313.294 168C231.767 168 197.554 362.5 308.554 458C362.72 504.602 382.686 556.204 398.406 596.829C406.976 618.98 414.285 637.868 425.185 650.902C432.792 633.7 459.374 621 491 621C493.12 621 495.218 621.057 497.289 621.169C497.761 610.605 497.712 598.63 497.659 585.546C497.427 528.355 497.109 450.003 539.809 375.986Z" fill="#DAEAAF"/>
<ellipse cx="447" cy="313" rx="237" ry="193" fill="#94B347"/>
<path d="M352.5 450.5L383.5 461.5H457L488 469L508.5 459.5L500.5 505.5L452.5 515L415 505.5L366 499L333.619 482.319C333.215 482.125 333 482 333 482L333.619 482.319C336.231 483.57 346.74 487.661 358 479C371 469 352.5 450.5 352.5 450.5Z" fill="#DAEAAF"/>
<ellipse cx="447" cy="294" rx="192" ry="154" fill="#DAEAAF"/>
<path d="M562.891 272.845C563.652 309.211 547.053 280.755 525.372 281.209C503.691 281.662 485.138 310.853 484.378 274.488C483.617 238.123 500.576 208.275 522.257 207.821C543.937 207.368 562.13 236.48 562.891 272.845Z" fill="#94B347"/>
<path d="M539.448 675.036C540.342 697.699 465.014 749.88 436.618 751C408.222 752.12 437.512 701.754 436.618 679.091C435.725 656.427 458.019 637.147 486.415 636.027C514.811 634.908 538.555 652.372 539.448 675.036Z" fill="#94B347"/>
<path d="M431.891 272.845C432.652 309.211 416.053 280.755 394.372 281.209C372.691 281.662 354.138 310.853 353.378 274.488C352.617 238.123 369.576 208.275 391.257 207.821C412.937 207.368 431.13 236.48 431.891 272.845Z" fill="#94B347"/>
<path d="M428 446.5C337.5 443.5 260.001 331.5 260.001 331.5C260.001 331.5 551.501 420.5 529.501 433C507.501 445.5 501.001 493 501.001 493C497.395 492.492 494.435 506.822 491 507.5C485.331 508.619 479.213 496.687 473 497.5C461.295 499.033 467.5 498.5 466 497.5C493 497.5 518.5 449.5 428 446.5Z" fill="#DAEAAF"/>
<ellipse cx="452" cy="297" rx="210" ry="174" fill="#DAEAAF"/>
<path d="M501.312 309.387C502.048 273.022 517.462 302.136 539.143 302.575C560.824 303.013 580.562 274.611 579.826 310.976C579.09 347.342 560.918 376.467 539.236 376.028C517.555 375.589 500.576 345.753 501.312 309.387Z" fill="#94B347"/>
<path d="M334.332 307.391C335.068 271.025 350.482 300.139 372.164 300.578C393.845 301.017 413.583 272.614 412.847 308.98C412.111 345.345 393.938 374.47 372.257 374.031C350.576 373.593 333.596 343.757 334.332 307.391Z" fill="#94B347"/>
<rect x="384" y="196" width="130" height="3" fill="#94B347"/>
<rect x="397" y="218" width="99" height="3" fill="#94B347"/>
<rect x="365" y="207" width="167" height="3" fill="#94B347"/>
</svg>
