<svg width="654" height="739" viewBox="0 0 654 739" fill="none" xmlns="http://www.w3.org/2000/svg">
<path d="M301.468 277C301.468 419.489 198.27 535 70.9681 535C-56.3335 535 26.4682 467.989 26.4682 325.5C26.4682 183.011 -56.3335 19 70.9681 19C198.27 19 301.468 134.511 301.468 277Z" fill="#98A775"/>
<path d="M555 233.5C555 362.458 451.962 467 324.858 467C197.754 467 280.427 406.353 280.427 277.394C280.427 148.436 197.754 0 324.858 0C451.962 0 555 104.542 555 233.5Z" fill="#98A775"/>
<ellipse cx="393.5" cy="211.5" rx="120.5" ry="52.5" fill="#94B347"/>
<path d="M597 318.195C597 397.832 508.125 468 398.492 468C288.858 468 240 409.051 240 329.414C240 249.777 288.858 174 398.492 174C508.125 174 597 238.558 597 318.195Z" fill="#94B347"/>
<path d="M577 320.687C577 401.7 481.992 471 391.933 471C295.007 471 226 401.7 226 320.687C226 239.674 304.574 174 401.5 174C498.426 174 577 239.674 577 320.687Z" fill="#94B347"/>
<path d="M654 316.991C654 429.1 522.805 525 399.39 525C266.566 525 172 429.1 172 316.991C172 204.882 279.676 114 412.5 114C545.324 114 654 204.882 654 316.991Z" fill="#94B347"/>
<path d="M620 367.772C620 444.967 505.136 511 397.084 511C280.794 511 198 444.967 198 367.772C198 290.578 292.272 228 408.562 228C524.853 228 620 290.578 620 367.772Z" fill="#DAEAAF"/>
<path d="M343.374 317.598H433.396L541 301.249C541 301.249 541 373.43 508.297 381.216C456.191 393.62 577.096 368.797 481.843 427.287C439.062 449.526 406.309 463.365 417.672 470.614C421.922 476.965 416.148 483.43 421.683 486.759C426.606 489.721 338.656 464.354 341.47 464.683C344.283 465.012 359.183 450.844 302.934 427.287C246.685 403.731 257.914 294 257.914 294L343.374 317.598Z" fill="#DAEAAF"/>
<path d="M498 488H496" stroke="black"/>
<ellipse cx="480.5" cy="312" rx="33.5" ry="31" fill="white"/>
<ellipse cx="481" cy="346" rx="42" ry="17" fill="#D4EE8D"/>
<ellipse cx="364.5" cy="312" rx="33.5" ry="31" fill="white"/>
<ellipse cx="365" cy="346" rx="42" ry="17" fill="#D4EE8D"/>
<ellipse cx="405" cy="315.5" rx="202" ry="172.5" fill="#DAEAAF"/>
<path d="M352.891 338.845C353.652 375.211 337.053 346.755 315.372 347.209C293.691 347.662 275.138 376.853 274.378 340.488C273.617 304.123 290.576 274.275 312.257 273.821C333.937 273.368 352.13 302.48 352.891 338.845Z" fill="#94B347"/>
<path d="M522.891 335.845C523.652 372.211 507.053 343.755 485.372 344.209C463.691 344.662 445.138 373.853 444.378 337.488C443.617 301.123 460.576 271.275 482.257 270.821C503.937 270.368 522.13 299.48 522.891 335.845Z" fill="#94B347"/>
<path d="M414.841 400.972C409.996 407.568 400.115 407.486 395.381 400.809L380.049 379.186C374.387 371.202 380.151 360.164 389.938 360.246L420.961 360.505C430.748 360.586 436.326 371.72 430.533 379.608L414.841 400.972Z" fill="#94B347"/>
<path d="M319.5 472C346.5 486 332 503.5 323 501C314 498.5 344.5 507 344.5 507L368.5 510.5L389 512.5H410.5L431 511C431 511 443 622 446 564.5C449 507 503.5 466 503.5 466L421.5 487.5L385.5 487L352 481.5C352 481.5 292.5 458 319.5 472Z" fill="#DAEAAF"/>
<path fill-rule="evenodd" clip-rule="evenodd" d="M505.829 665.846C539.939 625.446 610.757 531.783 650 355C609.943 169.953 469.007 184.341 402.339 191.147C392.448 192.157 384.192 193 378.143 193C346.454 193 314.542 249.194 297.22 299.1C291.259 312.163 286.874 328.11 284.891 347.533C284.305 351.964 284 355.99 284 359.507C284.198 355.376 284.497 351.386 284.891 347.533C286.662 334.127 291.001 317.019 297.22 299.1C323.232 242.1 379.267 240.017 396.854 243.676C475.303 237.985 625.2 240.018 457.5 380C462.132 386.319 460.519 399.045 457.329 424.217C454.556 446.092 450.592 477.365 448.5 522C446.174 571.628 441.797 611.062 438.112 639.034C439.07 639.011 440.033 639 441 639C471.38 639 497.108 650.28 505.829 665.846Z" fill="#94B347"/>
<path fill-rule="evenodd" clip-rule="evenodd" d="M497.809 394.986C695.819 394.986 640.792 291.1 615.85 274.949C615.344 274.431 614.863 273.936 614.403 273.463C604.699 263.488 604.06 262.832 579.253 249.915C505.537 211.532 331.572 187 271.294 187C189.767 187 155.554 381.5 266.554 477C320.72 523.602 340.686 575.204 356.406 615.829C364.976 637.98 372.285 656.868 383.185 669.902C390.792 652.7 417.374 640 449 640C451.12 640 453.218 640.057 455.289 640.169C455.761 629.605 455.712 617.63 455.659 604.546C455.427 547.355 455.109 469.003 497.809 394.986Z" fill="#DAEAAF"/>
<ellipse cx="405" cy="332" rx="237" ry="193" fill="#94B347"/>
<path d="M310.5 469.5L341.5 480.5H415L446 488L466.5 478.5L458.5 524.5L410.5 534L373 524.5L324 518L291.619 501.319C291.215 501.125 291 501 291 501L291.619 501.319C294.231 502.57 304.74 506.661 316 498C329 488 310.5 469.5 310.5 469.5Z" fill="#DAEAAF"/>
<ellipse cx="435" cy="327.5" rx="162" ry="139.5" fill="#DAEAAF"/>
<path d="M520.891 291.845C521.652 328.211 505.053 299.755 483.372 300.209C461.691 300.662 443.138 329.853 442.378 293.488C441.617 257.123 458.576 227.275 480.257 226.821C501.937 226.368 520.13 255.48 520.891 291.845Z" fill="#94B347"/>
<path d="M497.448 694.036C498.342 716.7 470.396 735.88 442 737C413.604 738.12 395.512 716.7 394.618 694.036C393.724 671.372 416.019 656.147 444.415 655.027C472.811 653.908 496.554 671.372 497.448 694.036Z" fill="#94B347"/>
<path d="M389.891 291.845C390.652 328.211 374.053 299.755 352.372 300.209C330.691 300.662 312.138 329.853 311.378 293.488C310.617 257.123 327.576 227.275 349.257 226.821C370.937 226.368 389.13 255.48 389.891 291.845Z" fill="#94B347"/>
<path d="M386 465.5C295.5 462.5 218.001 350.5 218.001 350.5C218.001 350.5 509.501 439.5 487.501 452C465.501 464.5 459.001 512 459.001 512C455.395 511.492 452.435 525.822 449 526.5C443.331 527.619 437.213 515.687 431 516.5C419.295 518.033 425.5 517.5 424 516.5C451 516.5 476.5 468.5 386 465.5Z" fill="#DAEAAF"/>
<ellipse cx="416" cy="339" rx="204" ry="151" fill="#DAEAAF"/>
<path d="M456.567 330.679C457.589 381.197 479.002 340.752 509.121 340.143C539.239 339.533 566.659 378.989 565.636 328.471C564.614 277.953 539.369 237.494 509.25 238.104C479.132 238.713 455.545 280.16 456.567 330.679Z" fill="#94B347"/>
<path d="M292.851 333.452C293.874 383.97 315.286 343.526 345.405 342.916C375.524 342.307 402.943 381.763 401.921 331.245C400.898 280.727 375.653 240.268 345.535 240.877C315.416 241.487 291.829 282.934 292.851 333.452Z" fill="#94B347"/>
</svg>
