<svg width="732" height="746" viewBox="0 0 732 746" fill="none" xmlns="http://www.w3.org/2000/svg">
<path d="M617.841 240.5C612.341 235 547.341 177.5 415.841 199.5C371.841 206.861 362.841 216 334.341 235.5C334.341 106.542 256.595 12 383.699 12C510.803 12 617.841 111.542 617.841 240.5Z" fill="#565B49"/>
<path d="M351.841 218C258.119 238.032 251 360 260.5 454C281.5 496 148.5 569 81.5 522.5C-120.501 418 116.841 449.989 116.841 307.5C116.841 165.011 3.50734 0 130.809 0C258.111 0 351.841 75.5105 351.841 218Z" fill="#687152"/>
<path d="M610 709.5C610 729.658 591.644 746 569 746C546.356 746 528 729.658 528 709.5C528 689.342 546.356 673 569 673C591.644 673 610 689.342 610 709.5Z" fill="#687152"/>
<ellipse cx="564.5" cy="343.5" rx="39.5" ry="42.5" fill="#D9D9D9"/>
<ellipse cx="448.5" cy="342.5" rx="39.5" ry="42.5" fill="#D9D9D9"/>
<path fill-rule="evenodd" clip-rule="evenodd" d="M390.5 536.5C384.976 547.025 371.75 552.5 361.75 549.5C329.692 539.883 299.444 517 287.5 502C266 475 251.865 455.242 241 422.5C234.459 402.787 232.735 390.768 232.5 370C232.099 334.578 239.017 313.861 254.5 282C269.299 251.546 281.643 235.439 307 213C334.951 188.265 355.077 178.261 390.5 166.5C429.301 153.617 453.722 151.553 494.5 154.5C528.278 156.942 551.453 159.682 583 172C584.124 172.439 585.234 172.872 586.332 173.3C621.317 186.945 642.956 195.384 669 222.5C687.35 241.605 696.689 256.937 707 279C717.311 301.063 727 341 727 341C727 341 734.377 376.575 731 396C730.197 400.618 729.464 404.933 728.776 408.983C722.813 444.089 720.242 459.224 705 478.5C679.867 510.286 657.478 526.625 620 541C587.448 553.486 565.633 556.029 543.916 558.561C541.282 558.869 538.65 559.176 536 559.5C534.663 559.664 533.252 559.824 531.787 559.99C515.285 561.864 492 564.508 492 581.5C493.5 602 507 613.5 527 617.5C532.956 618.284 538.913 618.723 544.592 619.143C557.028 620.061 568.135 620.881 575 625C585 631 600 652 577.5 652C559 652 528.5 658 514 688.5C511 700 497 701.5 488.5 688.5C483.811 681.329 484.779 672.976 485.736 664.725C486.513 658.02 487.282 651.381 485 645.5C478.551 628.88 466.933 614.968 456.862 602.909C446.633 590.66 438 580.322 438 571C438 547.036 469.813 534.917 506.73 529.351C508.582 531.221 510.701 532.845 513.065 534.148C525.266 540.874 539.795 536.744 547.346 525.065C547.38 525.06 547.415 525.056 547.449 525.052C549.124 526.629 551.002 528.01 553.065 529.148C566.522 536.566 582.811 530.779 589.446 516.222C590.026 514.948 590.514 513.65 590.911 512.335C592.195 513.387 593.582 514.33 595.065 515.148C608.522 522.566 624.811 516.779 631.446 502.222C633.137 498.512 634.037 494.591 634.218 490.684C646.761 495.109 660.626 489.115 666.618 475.969C670.025 468.493 670.224 460.159 667.789 452.814C677.615 452.744 686.995 446.851 691.641 436.657C696.452 426.102 694.866 413.833 688.5 405.058C693.178 402.305 697.14 398.013 699.684 392.432C706.111 378.332 701.123 361.176 688.574 353.371C692.836 339.612 687.161 324.065 674.819 317.262C672.553 316.013 670.208 315.138 667.842 314.617C672.434 300.722 666.773 284.845 654.264 277.95C648.761 274.916 642.784 274.091 637.188 275.171C636.543 264.998 631.089 255.391 622.092 250.432C617.921 248.133 613.478 247.102 609.134 247.208C603.756 238.679 594.151 233 583.197 233C579.458 233 575.876 233.662 572.565 234.873C568.963 222.253 557.179 213 543.197 213C534.018 213 525.785 216.989 520.193 223.301C514.826 214.721 505.191 209 494.197 209C484.507 209 475.872 213.445 470.285 220.375C461.355 211.255 447.079 208.553 434.881 214.667C429.028 217.601 424.515 222.132 421.621 227.446C412.851 221.609 401.179 220.547 390.964 225.667C383.183 229.567 377.77 236.291 375.38 243.923C367.964 241.471 359.561 241.859 351.964 245.667C341.896 250.714 335.793 260.488 335.072 270.839C328.81 269.741 322.122 270.58 315.964 273.667C301.967 280.683 295.633 296.838 300.771 310.976C298.124 311.507 295.499 312.396 292.964 313.667C279.154 320.589 272.803 336.409 277.572 350.409C263.53 358.35 257.949 375.807 265.141 390.154C267.987 395.832 272.421 400.199 277.655 403C270.531 411.93 268.757 424.413 274.141 435.154C279.339 445.526 289.835 451.522 300.83 451.593C298.105 459.067 298.328 467.547 302.141 475.154C308.423 487.687 322.44 493.831 335.727 490.852C336.126 491.967 336.597 493.069 337.141 494.154C343.016 505.875 355.655 512.008 368.136 510.317C368.759 510.664 369.395 511.017 370.042 511.374C381.536 517.734 396.115 525.801 390.5 536.5Z" fill="#94B347"/>
</svg>
